<?xml version="1.0" encoding="utf-8"?>
<!-- Generator: Adobe Illustrator 24.0.0, SVG Export Plug-In . SVG Version: 6.00 Build 0)  -->
<svg version="1.1" id="Layer_1" xmlns="http://www.w3.org/2000/svg" xmlns:xlink="http://www.w3.org/1999/xlink" x="0px" y="0px"
	 viewBox="0 0 7 24" style="enable-background:new 0 0 7 24;" xml:space="preserve">
<style type="text/css">
	.st0{fill-rule:evenodd;clip-rule:evenodd;}
</style>
<path class="st0" d="M7.8,12c0-5,4-9,9-9s9,4,9,9s-4,9-9,9C11.9,21,7.8,17,7.8,12z M9.9,13c0.5,3.4,3.4,6,6.9,6s6.4-2.6,6.9-6h-4.1
	c-0.4,1.2-1.5,2-2.8,2s-2.4-0.8-2.8-2H9.9z M23.8,11c-0.5-3.4-3.4-6-6.9-6s-6.4,2.6-6.9,6h4c0.4-1.2,1.5-2,2.8-2s2.4,0.8,2.8,2H23.8
	z M16.8,13c0.6,0,1-0.4,1-1s-0.4-1-1-1s-1,0.4-1,1S16.3,13,16.8,13z"/>
<rect x="0.5" y="0.4" width="2.6" height="22.9"/>
<path d="M6.7,1.4L6.7,1.4c0,0.5-0.4,0.9-0.9,0.9h-4c-0.5,0-0.9-0.4-0.9-0.9l0,0c0-0.5,0.4-0.9,0.9-0.9h4C6.2,0.4,6.7,0.8,6.7,1.4z"
	/>
<path d="M5.6,5.6L5.6,5.6c0,0.4-0.4,0.8-0.8,0.8H1.7C1.3,6.4,0.9,6,0.9,5.6l0,0c0-0.4,0.4-0.8,0.8-0.8h3C5.3,4.8,5.6,5.2,5.6,5.6z"
	/>
<path d="M5.6,8.7L5.6,8.7c0,0.4-0.4,0.8-0.8,0.8H1.7c-0.4,0-0.8-0.4-0.8-0.8l0,0c0-0.4,0.4-0.8,0.8-0.8h3C5.3,7.9,5.6,8.3,5.6,8.7z"
	/>
<path d="M5.6,11.9L5.6,11.9c0,0.4-0.4,0.8-0.8,0.8H1.7c-0.4,0-0.8-0.4-0.8-0.8l0,0c0-0.4,0.4-0.8,0.8-0.8h3
	C5.3,11.1,5.6,11.4,5.6,11.9z"/>
<path d="M5.6,14.9L5.6,14.9c0,0.4-0.4,0.8-0.8,0.8H1.7c-0.4,0-0.8-0.4-0.8-0.8l0,0c0-0.4,0.4-0.8,0.8-0.8h3
	C5.3,14.1,5.6,14.5,5.6,14.9z"/>
<path d="M5.6,18.1L5.6,18.1c0,0.4-0.4,0.8-0.8,0.8H1.7c-0.4,0-0.8-0.4-0.8-0.8l0,0c0-0.4,0.4-0.8,0.8-0.8h3
	C5.3,17.3,5.6,17.7,5.6,18.1z"/>
<path d="M6.7,22.4L6.7,22.4c0,0.5-0.4,0.9-0.9,0.9h-4c-0.5,0-0.9-0.4-0.9-0.9l0,0c0-0.5,0.4-0.9,0.9-0.9h4
	C6.2,21.5,6.7,21.9,6.7,22.4z"/>
</svg>
