<?xml version="1.0" encoding="utf-8"?>
<!-- Generator: Adobe Illustrator 24.0.0, SVG Export Plug-In . SVG Version: 6.00 Build 0)  -->
<svg version="1.1" id="Layer_1" xmlns="http://www.w3.org/2000/svg" xmlns:xlink="http://www.w3.org/1999/xlink" x="0px" y="0px"
	 viewBox="0 0 27 24" style="enable-background:new 0 0 27 24;" xml:space="preserve">
<g>
	<path d="M13.8,7.9L13.8,7.9c0.3,0,0.5,0.2,0.5,0.5V10c0,0.3-0.2,0.5-0.5,0.5h0c-0.3,0-0.5-0.2-0.5-0.5V8.5
		C13.3,8.2,13.5,7.9,13.8,7.9z"/>
	<path d="M20.2,3.7c1.3,0,2.3,1,2.3,2.3v12.7c0,1.3-1,2.3-2.3,2.3H7.4c-1.3,0-2.3-1-2.3-2.3V6c0-1.3,1-2.3,2.3-2.3H20.2 M20.2,2.2
		H7.4C5.3,2.2,3.6,3.9,3.6,6v12.7c0,2.1,1.7,3.8,3.8,3.8h12.7c2.1,0,3.8-1.7,3.8-3.8V6C23.9,3.9,22.2,2.2,20.2,2.2L20.2,2.2z"/>
	<path d="M13.7,6.9c1.9,0,3.7,0.5,5.4,1.5c-0.5,0.8-1,1.7-1.5,2.5c-1.2-0.7-2.4-1-3.7-1c-1.3,0-2.7,0.4-3.8,1.1
		C9.5,10.1,9,9.2,8.4,8.4C10.1,7.4,11.9,6.9,13.7,6.9 M13.7,5.9C13.7,5.9,13.7,5.9,13.7,5.9c-2,0-4.1,0.6-5.8,1.6
		C7.7,7.6,7.5,7.9,7.5,8.1c-0.1,0.3,0,0.5,0.1,0.8l0.8,1.3l0.8,1.3c0.1,0.2,0.4,0.4,0.6,0.5c0.1,0,0.2,0,0.2,0
		c0.2,0,0.4-0.1,0.5-0.2c1-0.6,2.1-0.9,3.3-0.9c1.1,0,2.3,0.3,3.2,0.9c0.2,0.1,0.3,0.1,0.5,0.1c0.3,0,0.7-0.2,0.9-0.5L20,8.9
		c0.3-0.5,0.1-1.1-0.3-1.4C17.9,6.5,15.8,5.9,13.7,5.9L13.7,5.9z"/>
</g>
</svg>
